<svg xmlns="http://www.w3.org/2000/svg" viewBox="0 0 390.09 380.29" width="33" height="33">
  <g>
    <path d="M312.48,214.38v45.03l5.96,5.96v-46.15c-1.89-1.73-3.88-3.35-5.96-4.85Z" style="fill:#6cf;"/>
    <path d="M238.88,214.31s-.05,.03-.07,.05v50.99c0,12.7-8.93,23.33-20.87,25.93,4.76,11.1,12.69,20.5,22.59,27.16h27.3l-28.95-28.95v-75.19Z" style="fill:#6cf;"/>
    <path d="M141.25,291.89H53.06c-14.64,0-26.55-11.87-26.55-26.55V132.66c0-14.64,11.87-26.55,26.55-26.55H212.26c14.68,0,26.55,11.87,26.55,26.55v1.57c4.38-1.27,8.82-2.32,13.3-3.14,.81-13.94,12.35-24.98,26.49-24.98s26.27,11.6,26.53,26.05c4.52,1,8.96,2.21,13.3,3.65v-29.66c-.03-14.68-11.91-26.55-26.58-26.55h-112.93l44.56-53.48,2.06,.39c7.32,0,13.26-5.93,13.26-13.26s-5.94-13.25-13.26-13.25-13.26,5.93-13.26,13.25c0,1.6,.39,3.09,.92,4.51l-51.6,61.83h-4.83L105.26,17.77c.5-1.42,.89-2.91,.89-4.51,0-7.32-5.93-13.25-13.26-13.25s-13.26,5.93-13.26,13.25,5.97,13.26,13.26,13.26l2.06-.39,44.56,53.48H26.55c-14.68,0-26.55,11.87-26.55,26.55v185.75c0,14.64,11.87,26.54,26.55,26.54h122.71c-3.53-8.45-6.23-17.34-8.01-26.54Z" style="fill:#6cf;"/>
  </g>
  <path d="M261.37,280.17l42.91,42.91,20.02-20.02-34.33-34.32v-60.07h-28.6v71.51Zm-128.72-100.11l50.06,50.06,10.01,10.01c11.44-34.32,44.34-60.07,82.95-60.07,47.2,0,85.81,38.62,85.81,85.81s-38.62,85.81-85.81,85.81c-42.91,0-78.66-31.46-84.38-72.94l-28.6-28.6c-1.43,5.72-1.43,10.01-1.43,15.73,0,62.93,51.49,114.42,114.42,114.42s114.42-51.49,114.42-114.42-51.49-114.42-114.42-114.42c-35.75,0-67.22,17.16-88.67,42.91l-14.3-14.3h-40.05Zm0,0" style="fill:#1c726c;"/>
</svg>